<svg width="32" height="32" viewBox="0 0 32 32" fill="none" xmlns="http://www.w3.org/2000/svg">
  <defs>
    <linearGradient id="cosmic-gradient" x1="0%" y1="0%" x2="100%" y2="100%">
      <stop offset="0%" style="stop-color:#4F46E5;stop-opacity:1" />
      <stop offset="50%" style="stop-color:#2563EB;stop-opacity:1" />
      <stop offset="100%" style="stop-color:#06B6D4;stop-opacity:1" />
    </linearGradient>
  </defs>
  
  <!-- Rabbit Icon with Cosmic Gradient -->
  <path d="M16 4C13.5 4 11.5 6 11.5 8.5C11.5 9.5 11.8 10.4 12.3 11.2C10.5 11.8 9 13.2 8.3 15C7 15.5 6 16.7 6 18.2C6 20.3 7.7 22 9.8 22H22.2C24.3 22 26 20.3 26 18.2C26 16.7 25 15.5 23.7 15C23 13.2 21.5 11.8 19.7 11.2C20.2 10.4 20.5 9.5 20.5 8.5C20.5 6 18.5 4 16 4Z M14 18C13.4 18 13 17.6 13 17C13 16.4 13.4 16 14 16C14.6 16 15 16.4 15 17C15 17.6 14.6 18 14 18Z M18 18C17.4 18 17 17.6 17 16C17 16.4 17.4 16 18 16C18.6 16 19 16.4 19 17C19 17.6 18.6 18 18 18Z M16 20C16.6 20 17 19.6 17 19C17 18.4 16.6 18 16 18C15.4 18 15 18.4 15 19C15 19.6 15.4 20 16 20Z" fill="url(#cosmic-gradient)"/>
  
  <!-- Glow Effect -->
  <circle cx="16" cy="16" r="14" fill="url(#cosmic-gradient)" opacity="0.2"/>
</svg>
